<svg xmlns="http://www.w3.org/2000/svg" viewBox="0 0 320 220" role="img" aria-labelledby="title desc">
  <title id="title">Cloud Explorer digital edition</title>
  <desc id="desc">A personalized story displayed on a tablet and phone.</desc>
  <rect width="320" height="220" rx="28" fill="#fff7ed"/>
  <circle cx="269" cy="41" r="33" fill="#fde68a" opacity=".62"/>
  <rect x="51" y="29" width="178" height="151" rx="18" fill="#1f2937"/>
  <rect x="61" y="40" width="158" height="125" rx="10" fill="#fffbeb"/>
  <rect x="91" y="52" width="98" height="102" rx="8" fill="#f59e0b"/>
  <path d="M91 119c28-25 57-28 98-7v42H91z" fill="#f97316"/>
  <circle cx="139" cy="89" r="20" fill="#fff7ed"/>
  <path d="M124 91c8 10 23 10 31 0" fill="none" stroke="#9a3412" stroke-width="4" stroke-linecap="round"/>
  <circle cx="109" cy="172" r="4" fill="#fbbf24"/>
  <rect x="205" y="102" width="65" height="99" rx="13" fill="#334155"/>
  <rect x="212" y="111" width="51" height="77" rx="7" fill="#fffbeb"/>
  <rect x="221" y="119" width="33" height="59" rx="4" fill="#fb923c"/>
  <path d="M221 154c12-11 22-11 33-4v28h-33z" fill="#f59e0b"/>
  <circle cx="237.5" cy="193" r="3" fill="#fbbf24"/>
</svg>
